<?xml version="1.0" encoding="utf-8" standalone="no"?>
<!DOCTYPE svg PUBLIC "-//W3C//DTD SVG 1.1//EN"
  "http://www.w3.org/Graphics/SVG/1.1/DTD/svg11.dtd">
<!-- Created with matplotlib (https://matplotlib.org/) -->
<svg height="123.4824pt" version="1.1" viewBox="0 0 277.10678 123.4824" width="277.10678pt" xmlns="http://www.w3.org/2000/svg" xmlns:xlink="http://www.w3.org/1999/xlink">
 <defs>
  <style type="text/css">
*{stroke-linecap:butt;stroke-linejoin:round;}
  </style>
 </defs>
 <g id="figure_1">
  <g id="patch_1">
   <path d="M 0 123.4824 
L 277.10678 123.4824 
L 277.10678 0 
L 0 0 
z
" style="fill:#ffffff;"/>
  </g>
  <g id="axes_1">
   <g id="line2d_1">
    <path clip-path="url(#p14b853f808)" d="M 106.28318 43.5608 
L 265.36168 43.5608 
" style="fill:none;stroke:#000000;stroke-linecap:square;stroke-width:2;"/>
   </g>
   <g id="line2d_2">
    <path clip-path="url(#p14b853f808)" d="M 106.28318 89.0118 
L 265.36168 89.0118 
" style="fill:none;stroke:#000000;stroke-linecap:square;stroke-width:2;"/>
   </g>
   <g id="line2d_3">
    <path clip-path="url(#p14b853f808)" d="M 219.91068 89.0118 
L 219.91068 43.5608 
" style="fill:none;stroke:#68a5ff;stroke-linecap:square;stroke-width:2;"/>
   </g>
   <g id="patch_2">
    <path clip-path="url(#p14b853f808)" d="M 114.237105 58.332375 
L 143.780255 58.332375 
L 143.780255 28.789225 
L 114.237105 28.789225 
z
" style="fill:#b88dff;"/>
   </g>
   <g id="patch_3">
    <path clip-path="url(#p14b853f808)" d="M 114.237105 103.783375 
L 143.780255 103.783375 
L 143.780255 74.240225 
L 114.237105 74.240225 
z
" style="fill:#b88dff;"/>
   </g>
   <g id="patch_4">
    <path clip-path="url(#p14b853f808)" d="M 159.688105 58.332375 
L 189.231255 58.332375 
L 189.231255 28.789225 
L 159.688105 28.789225 
z
" style="fill:#00b3b0;"/>
   </g>
   <g id="patch_5">
    <path clip-path="url(#p14b853f808)" d="M 159.688105 103.783375 
L 189.231255 103.783375 
L 189.231255 74.240225 
L 159.688105 74.240225 
z
" style="fill:#00b3b0;"/>
   </g>
   <g id="patch_6">
    <path clip-path="url(#p14b853f808)" d="M 219.91068 47.992273 
C 221.08592 47.992273 222.213184 47.525345 223.044204 46.694324 
C 223.875225 45.863304 224.342153 44.73604 224.342153 43.5608 
C 224.342153 42.38556 223.875225 41.258296 223.044204 40.427276 
C 222.213184 39.596255 221.08592 39.129328 219.91068 39.129328 
C 218.73544 39.129328 217.608176 39.596255 216.777156 40.427276 
C 215.946135 41.258296 215.479208 42.38556 215.479208 43.5608 
C 215.479208 44.73604 215.946135 45.863304 216.777156 46.694324 
C 217.608176 47.525345 218.73544 47.992273 219.91068 47.992273 
z
" style="fill:#68a5ff;stroke:#68a5ff;stroke-linejoin:miter;stroke-width:1.5;"/>
   </g>
   <g id="patch_7">
    <path clip-path="url(#p14b853f808)" d="M 219.91068 99.351903 
C 222.652907 99.351903 225.283189 98.262404 227.222237 96.323357 
C 229.161284 94.384309 230.250783 91.754027 230.250783 89.0118 
C 230.250783 86.269573 229.161284 83.639291 227.222237 81.700243 
C 225.283189 79.761196 222.652907 78.671698 219.91068 78.671698 
C 217.168453 78.671698 214.538171 79.761196 212.599123 81.700243 
C 210.660076 83.639291 209.570578 86.269573 209.570578 89.0118 
C 209.570578 91.754027 210.660076 94.384309 212.599123 96.323357 
C 214.538171 98.262404 217.168453 99.351903 219.91068 99.351903 
z
" style="fill:#68a5ff;stroke:#68a5ff;stroke-linejoin:miter;stroke-width:2;"/>
   </g>
   <g id="line2d_4">
    <path clip-path="url(#p14b853f808)" d="M 219.91068 94.92043 
L 219.91068 83.10317 
" style="fill:none;stroke:#ffffff;stroke-linecap:square;stroke-width:2;"/>
   </g>
   <g id="line2d_5">
    <path clip-path="url(#p14b853f808)" d="M 214.00205 89.0118 
L 225.81931 89.0118 
" style="fill:none;stroke:#ffffff;stroke-linecap:square;stroke-width:2;"/>
   </g>
   <g id="text_1">
    <g clip-path="url(#p14b853f808)">
     <!-- $U_{i,A}$ -->
     <defs>
      <path d="M 15.484375 72.90625 
L 25.390625 72.90625 
L 16.796875 28.609375 
Q 16.265625 25.640625 16.046875 23.703125 
Q 15.828125 21.78125 15.828125 20.3125 
Q 15.828125 13.578125 19.578125 10.078125 
Q 23.34375 6.59375 30.609375 6.59375 
Q 40.046875 6.59375 45.28125 11.765625 
Q 50.53125 16.9375 52.78125 28.609375 
L 61.375 72.90625 
L 71.296875 72.90625 
L 62.5 27.390625 
Q 59.625 12.640625 51.5625 5.609375 
Q 43.5 -1.421875 29.5 -1.421875 
Q 18.5625 -1.421875 12.1875 4.078125 
Q 5.8125 9.578125 5.8125 19 
Q 5.8125 20.703125 6.046875 22.828125 
Q 6.296875 24.953125 6.78125 27.390625 
z
" id="DejaVuSans-Oblique-85"/>
      <path d="M 18.3125 75.984375 
L 27.296875 75.984375 
L 25.09375 64.59375 
L 16.109375 64.59375 
z
M 14.203125 54.6875 
L 23.1875 54.6875 
L 12.5 0 
L 3.515625 0 
z
" id="DejaVuSans-Oblique-105"/>
      <path d="M 11.71875 12.40625 
L 22.015625 12.40625 
L 22.015625 4 
L 14.015625 -11.625 
L 7.71875 -11.625 
L 11.71875 4 
z
" id="DejaVuSans-44"/>
      <path d="M 36.8125 72.90625 
L 48 72.90625 
L 61.53125 0 
L 51.21875 0 
L 48.1875 18.703125 
L 15.375 18.703125 
L 5.078125 0 
L -5.328125 0 
z
M 40.375 63.1875 
L 19.921875 26.90625 
L 46.6875 26.90625 
z
" id="DejaVuSans-Oblique-65"/>
     </defs>
     <g transform="translate(117.30868 46.6808)scale(0.13 -0.13)">
      <use transform="translate(0 0.09375)" xlink:href="#DejaVuSans-Oblique-85"/>
      <use transform="translate(73.193359 -16.3125)scale(0.7)" xlink:href="#DejaVuSans-Oblique-105"/>
      <use transform="translate(92.641602 -16.3125)scale(0.7)" xlink:href="#DejaVuSans-44"/>
      <use transform="translate(128.530273 -16.3125)scale(0.7)" xlink:href="#DejaVuSans-Oblique-65"/>
     </g>
    </g>
   </g>
   <g id="text_2">
    <g clip-path="url(#p14b853f808)">
     <!-- $U_{i,A}$ -->
     <g transform="translate(117.30868 92.1318)scale(0.13 -0.13)">
      <use transform="translate(0 0.09375)" xlink:href="#DejaVuSans-Oblique-85"/>
      <use transform="translate(73.193359 -16.3125)scale(0.7)" xlink:href="#DejaVuSans-Oblique-105"/>
      <use transform="translate(92.641602 -16.3125)scale(0.7)" xlink:href="#DejaVuSans-44"/>
      <use transform="translate(128.530273 -16.3125)scale(0.7)" xlink:href="#DejaVuSans-Oblique-65"/>
     </g>
    </g>
   </g>
   <g id="text_3">
    <g clip-path="url(#p14b853f808)">
     <!-- $Y$ -->
     <defs>
      <path d="M 6.296875 72.90625 
L 16.890625 72.90625 
L 30.515625 42.921875 
L 56.5 72.90625 
L 67.578125 72.90625 
L 34.515625 34.71875 
L 27.78125 0 
L 17.921875 0 
L 24.609375 34.71875 
z
" id="DejaVuSans-Oblique-89"/>
     </defs>
     <g transform="translate(170.42968 47.147988)scale(0.13 -0.13)">
      <use transform="translate(0 0.09375)" xlink:href="#DejaVuSans-Oblique-89"/>
     </g>
    </g>
   </g>
   <g id="text_4">
    <g clip-path="url(#p14b853f808)">
     <!-- $Y$ -->
     <g transform="translate(170.42968 92.598988)scale(0.13 -0.13)">
      <use transform="translate(0 0.09375)" xlink:href="#DejaVuSans-Oblique-89"/>
     </g>
    </g>
   </g>
   <g id="text_5">
    <g clip-path="url(#p14b853f808)">
     <!-- $qA_{0}$ -->
     <defs>
      <path d="M 41.703125 8.203125 
Q 38.09375 3.46875 33.171875 1.015625 
Q 28.265625 -1.421875 22.3125 -1.421875 
Q 14.015625 -1.421875 9.296875 4.171875 
Q 4.59375 9.765625 4.59375 19.578125 
Q 4.59375 27.484375 7.5 34.859375 
Q 10.40625 42.234375 15.828125 48.09375 
Q 19.34375 51.90625 23.90625 53.953125 
Q 28.46875 56 33.5 56 
Q 39.546875 56 43.453125 53.609375 
Q 47.359375 51.21875 49.125 46.390625 
L 50.6875 54.59375 
L 59.71875 54.59375 
L 45.125 -20.609375 
L 36.078125 -20.609375 
z
M 13.921875 20.90625 
Q 13.921875 13.671875 16.9375 9.890625 
Q 19.96875 6.109375 25.6875 6.109375 
Q 34.1875 6.109375 40.1875 14.234375 
Q 46.1875 22.359375 46.1875 33.984375 
Q 46.1875 41.015625 43.078125 44.75 
Q 39.984375 48.484375 34.1875 48.484375 
Q 29.9375 48.484375 26.3125 46.5 
Q 22.703125 44.53125 20.015625 40.71875 
Q 17.1875 36.71875 15.546875 31.34375 
Q 13.921875 25.984375 13.921875 20.90625 
z
" id="DejaVuSans-Oblique-113"/>
      <path d="M 31.78125 66.40625 
Q 24.171875 66.40625 20.328125 58.90625 
Q 16.5 51.421875 16.5 36.375 
Q 16.5 21.390625 20.328125 13.890625 
Q 24.171875 6.390625 31.78125 6.390625 
Q 39.453125 6.390625 43.28125 13.890625 
Q 47.125 21.390625 47.125 36.375 
Q 47.125 51.421875 43.28125 58.90625 
Q 39.453125 66.40625 31.78125 66.40625 
z
M 31.78125 74.21875 
Q 44.046875 74.21875 50.515625 64.515625 
Q 56.984375 54.828125 56.984375 36.375 
Q 56.984375 17.96875 50.515625 8.265625 
Q 44.046875 -1.421875 31.78125 -1.421875 
Q 19.53125 -1.421875 13.0625 8.265625 
Q 6.59375 17.96875 6.59375 36.375 
Q 6.59375 54.828125 13.0625 64.515625 
Q 19.53125 74.21875 31.78125 74.21875 
z
" id="DejaVuSans-48"/>
     </defs>
     <g transform="translate(54.30768 48.011777)scale(0.1625 -0.1625)">
      <use transform="translate(0 0.09375)" xlink:href="#DejaVuSans-Oblique-113"/>
      <use transform="translate(63.476562 0.09375)" xlink:href="#DejaVuSans-Oblique-65"/>
      <use transform="translate(131.884766 -16.3125)scale(0.7)" xlink:href="#DejaVuSans-48"/>
     </g>
    </g>
   </g>
   <g id="text_6">
    <g clip-path="url(#p14b853f808)">
     <!-- $qA_{1}$ -->
     <defs>
      <path d="M 12.40625 8.296875 
L 28.515625 8.296875 
L 28.515625 63.921875 
L 10.984375 60.40625 
L 10.984375 69.390625 
L 28.421875 72.90625 
L 38.28125 72.90625 
L 38.28125 8.296875 
L 54.390625 8.296875 
L 54.390625 0 
L 12.40625 0 
z
" id="DejaVuSans-49"/>
     </defs>
     <g transform="translate(54.30768 93.462777)scale(0.1625 -0.1625)">
      <use transform="translate(0 0.09375)" xlink:href="#DejaVuSans-Oblique-113"/>
      <use transform="translate(63.476562 0.09375)" xlink:href="#DejaVuSans-Oblique-65"/>
      <use transform="translate(131.884766 -16.3125)scale(0.7)" xlink:href="#DejaVuSans-49"/>
     </g>
    </g>
   </g>
  </g>
 </g>
 <defs>
  <clipPath id="p14b853f808">
   <rect height="109.0824" width="262.70678" x="7.2" y="7.2"/>
  </clipPath>
 </defs>
</svg>
